<svg xmlns="http://www.w3.org/2000/svg" viewBox="0 0 1536 1024"><path fill="#4d9fff" fill-rule="evenodd" d="M 1323 220 L 1321 217 L 1315 216 L 1298 225 L 1286 228 L 1271 228 L 1236 221 L 1217 221 L 1201 225 L 1186 233 L 1177 242 L 1172 251 L 1169 259 L 1158 306 L 1149 329 L 1141 345 L 1121 376 L 1102 400 L 1087 417 L 1056 447 L 1039 461 L 1008 483 L 982 498 L 961 508 L 932 520 L 906 529 L 905 533 L 908 541 L 909 554 L 910 555 L 910 560 L 909 561 L 904 551 L 892 540 L 882 536 L 866 533 L 882 522 L 874 515 L 867 505 L 861 489 L 859 479 L 859 472 L 858 471 L 859 434 L 860 433 L 862 416 L 868 393 L 867 385 L 865 383 L 859 383 L 849 387 L 836 396 L 823 408 L 810 424 L 797 444 L 788 461 L 779 483 L 772 509 L 764 527 L 758 536 L 745 549 L 729 559 L 716 564 L 692 569 L 683 569 L 682 570 L 637 570 L 636 569 L 583 570 L 582 571 L 573 571 L 572 572 L 552 574 L 521 581 L 493 591 L 469 603 L 458 610 L 446 623 L 437 626 L 428 631 L 423 639 L 422 644 L 424 655 L 433 670 L 456 694 L 476 710 L 507 730 L 543 748 L 578 762 L 606 771 L 637 778 L 638 779 L 637 780 L 628 780 L 629 788 L 635 799 L 643 809 L 657 822 L 678 835 L 693 840 L 704 841 L 710 839 L 713 834 L 713 828 L 710 819 L 700 800 L 692 775 L 682 775 L 681 774 L 673 774 L 665 772 L 657 772 L 656 771 L 650 771 L 649 770 L 637 769 L 617 765 L 578 754 L 540 739 L 500 717 L 471 696 L 447 672 L 443 664 L 443 659 L 448 655 L 458 654 L 459 653 L 475 653 L 476 654 L 493 655 L 516 660 L 540 668 L 550 673 L 554 673 L 563 670 L 574 670 L 589 673 L 612 681 L 632 690 L 661 699 L 665 699 L 666 700 L 667 715 L 674 736 L 682 751 L 692 766 L 716 793 L 733 808 L 749 820 L 775 835 L 787 840 L 810 847 L 827 849 L 828 850 L 842 850 L 843 851 L 864 850 L 873 848 L 882 843 L 884 840 L 885 834 L 883 830 L 870 820 L 855 811 L 844 802 L 833 791 L 816 769 L 798 752 L 782 741 L 766 733 L 757 730 L 758 729 L 768 730 L 793 738 L 806 746 L 821 762 L 829 756 L 842 750 L 867 745 L 873 745 L 900 739 L 933 727 L 947 719 L 959 710 L 966 703 L 975 691 L 984 671 L 989 642 L 993 629 L 1002 610 L 1012 595 L 1030 576 L 1044 566 L 1060 559 L 1073 559 L 1078 565 L 1077 573 L 1073 584 L 1038 652 L 1028 668 L 1016 684 L 993 707 L 975 720 L 961 728 L 929 741 L 907 747 L 899 748 L 911 748 L 912 747 L 929 745 L 944 741 L 971 731 L 1004 713 L 1030 695 L 1049 679 L 1078 649 L 1107 610 L 1119 590 L 1136 556 L 1148 528 L 1167 467 L 1176 425 L 1180 393 L 1181 392 L 1183 355 L 1184 354 L 1184 338 L 1186 332 L 1195 322 L 1211 312 L 1228 306 L 1245 303 L 1268 296 L 1282 289 L 1292 282 L 1304 270 L 1315 254 L 1323 232 Z M 755 729 L 756 728 L 758 729 L 757 730 Z M 607 628 L 606 633 L 599 639 L 586 644 L 570 646 L 569 647 L 554 647 L 553 646 L 543 646 L 542 645 L 530 644 L 515 639 L 512 639 L 505 635 L 509 631 L 525 623 L 542 618 L 552 616 L 561 616 L 562 615 L 575 615 L 576 616 L 589 617 L 601 622 Z M 1037 171 L 1034 174 L 1032 181 L 1033 202 L 1039 224 L 1048 242 L 1062 260 L 1072 269 L 1083 277 L 1090 280 L 1111 293 L 1128 311 L 1132 318 L 1135 328 L 1137 329 L 1148 306 L 1153 291 L 1158 269 L 1166 249 L 1165 241 L 1161 233 L 1149 220 L 1136 213 L 1118 208 L 1090 206 L 1073 201 L 1061 194 L 1052 185 L 1042 171 L 1040 170 Z "/></svg>